<svg id="visual" viewBox="0 0 960 300" width="960" height="300" xmlns="http://www.w3.org/2000/svg" xmlns:xlink="http://www.w3.org/1999/xlink" version="1.1"><rect x="0" y="0" width="960" height="300" fill="#202731"></rect><path d="M0 144L22.8 150.8C45.7 157.7 91.3 171.3 137 170.5C182.7 169.7 228.3 154.3 274 151.8C319.7 149.3 365.3 159.7 411.2 166.5C457 173.3 503 176.7 548.8 171.8C594.7 167 640.3 154 686 154C731.7 154 777.3 167 823 167.7C868.7 168.3 914.3 156.7 937.2 150.8L960 145L960 0L937.2 0C914.3 0 868.7 0 823 0C777.3 0 731.7 0 686 0C640.3 0 594.7 0 548.8 0C503 0 457 0 411.2 0C365.3 0 319.7 0 274 0C228.3 0 182.7 0 137 0C91.3 0 45.7 0 22.8 0L0 0Z" fill="#ff6f61"></path><path d="M0 85L22.8 86.5C45.7 88 91.3 91 137 98.5C182.7 106 228.3 118 274 120.5C319.7 123 365.3 116 411.2 112.5C457 109 503 109 548.8 105.5C594.7 102 640.3 95 686 97.2C731.7 99.3 777.3 110.7 823 118.3C868.7 126 914.3 130 937.2 132L960 134L960 0L937.2 0C914.3 0 868.7 0 823 0C777.3 0 731.7 0 686 0C640.3 0 594.7 0 548.8 0C503 0 457 0 411.2 0C365.3 0 319.7 0 274 0C228.3 0 182.7 0 137 0C91.3 0 45.7 0 22.8 0L0 0Z" fill="#ee5849"></path><path d="M0 37L22.8 38.8C45.7 40.7 91.3 44.3 137 51C182.7 57.7 228.3 67.3 274 68C319.7 68.7 365.3 60.3 411.2 53.7C457 47 503 42 548.8 43.7C594.7 45.3 640.3 53.7 686 55.3C731.7 57 777.3 52 823 54.7C868.7 57.3 914.3 67.7 937.2 72.8L960 78L960 0L937.2 0C914.3 0 868.7 0 823 0C777.3 0 731.7 0 686 0C640.3 0 594.7 0 548.8 0C503 0 457 0 411.2 0C365.3 0 319.7 0 274 0C228.3 0 182.7 0 137 0C91.3 0 45.7 0 22.8 0L0 0Z" fill="#dd3f31"></path></svg>