<svg id="visual" viewBox="0 0 960 540" width="960" height="540" xmlns="http://www.w3.org/2000/svg" xmlns:xlink="http://www.w3.org/1999/xlink" version="1.1"><rect x="0" y="0" width="960" height="540" fill="#202731"></rect><path d="M0 166L22.8 167.2C45.7 168.3 91.3 170.7 137 168.2C182.7 165.7 228.3 158.3 274 151.7C319.7 145 365.3 139 411.2 131.3C457 123.7 503 114.3 548.8 116C594.7 117.7 640.3 130.3 686 134.2C731.7 138 777.3 133 823 132.2C868.7 131.3 914.3 134.7 937.2 136.3L960 138L960 0L937.2 0C914.3 0 868.7 0 823 0C777.3 0 731.7 0 686 0C640.3 0 594.7 0 548.8 0C503 0 457 0 411.2 0C365.3 0 319.7 0 274 0C228.3 0 182.7 0 137 0C91.3 0 45.7 0 22.8 0L0 0Z" fill="#ff6f61"></path><path d="M0 96L22.8 100.3C45.7 104.7 91.3 113.3 137 111.5C182.7 109.7 228.3 97.3 274 90.2C319.7 83 365.3 81 411.2 87.8C457 94.7 503 110.3 548.8 111.3C594.7 112.3 640.3 98.7 686 95C731.7 91.3 777.3 97.7 823 94C868.7 90.3 914.3 76.7 937.2 69.8L960 63L960 0L937.2 0C914.3 0 868.7 0 823 0C777.3 0 731.7 0 686 0C640.3 0 594.7 0 548.8 0C503 0 457 0 411.2 0C365.3 0 319.7 0 274 0C228.3 0 182.7 0 137 0C91.3 0 45.7 0 22.8 0L0 0Z" fill="#ee5849"></path><path d="M0 53L22.8 51.7C45.7 50.3 91.3 47.7 137 47.7C182.7 47.7 228.3 50.3 274 52.3C319.7 54.3 365.3 55.7 411.2 53.8C457 52 503 47 548.8 48.2C594.7 49.3 640.3 56.7 686 58.5C731.7 60.3 777.3 56.7 823 57.8C868.7 59 914.3 65 937.2 68L960 71L960 0L937.2 0C914.3 0 868.7 0 823 0C777.3 0 731.7 0 686 0C640.3 0 594.7 0 548.8 0C503 0 457 0 411.2 0C365.3 0 319.7 0 274 0C228.3 0 182.7 0 137 0C91.3 0 45.7 0 22.8 0L0 0Z" fill="#dd3f31"></path></svg>